<mxfile host="app.diagrams.net" agent="Mozilla/5.0 (Windows NT 10.0; Win64; x64) AppleWebKit/537.36 (KHTML, like Gecko) Chrome/140.0.0.0 Safari/537.36" version="28.2.3">
  <diagram name="Flowchart Đặt vé máy bay" id="14wgVIvGLMzgdN_GLxBO">
    <mxGraphModel dx="9312" dy="6407" grid="1" gridSize="10" guides="1" tooltips="1" connect="1" arrows="1" fold="1" page="1" pageScale="1" pageWidth="827" pageHeight="1169" math="0" shadow="0">
      <root>
        <mxCell id="0" />
        <mxCell id="1" parent="0" />
        <mxCell id="KKSr8hagYEq-jAlGCGY_-1" value="Bắt đầu" style="ellipse;whiteSpace=wrap;html=1;" vertex="1" parent="1">
          <mxGeometry x="580" y="260" width="120" height="60" as="geometry" />
        </mxCell>
        <mxCell id="KKSr8hagYEq-jAlGCGY_-2" value="Nhập thông tin chuyến bay" style="shape=parallelogram;whiteSpace=wrap;html=1;" vertex="1" parent="1">
          <mxGeometry x="580" y="360" width="200" height="60" as="geometry" />
        </mxCell>
        <mxCell id="KKSr8hagYEq-jAlGCGY_-3" value="Hệ thống tìm chuyến bay" style="rounded=0;whiteSpace=wrap;html=1;" vertex="1" parent="1">
          <mxGeometry x="580" y="460" width="200" height="60" as="geometry" />
        </mxCell>
        <mxCell id="KKSr8hagYEq-jAlGCGY_-4" value="Có chuyến phù hợp?" style="rhombus;whiteSpace=wrap;html=1;" vertex="1" parent="1">
          <mxGeometry x="580" y="560" width="160" height="80" as="geometry" />
        </mxCell>
        <mxCell id="KKSr8hagYEq-jAlGCGY_-5" value="Thông báo: Không có chuyến" style="shape=parallelogram;whiteSpace=wrap;html=1;" vertex="1" parent="1">
          <mxGeometry x="320" y="560" width="200" height="60" as="geometry" />
        </mxCell>
        <mxCell id="KKSr8hagYEq-jAlGCGY_-6" value="Nhập thông tin khách" style="shape=parallelogram;whiteSpace=wrap;html=1;" vertex="1" parent="1">
          <mxGeometry x="580" y="680" width="200" height="60" as="geometry" />
        </mxCell>
        <mxCell id="KKSr8hagYEq-jAlGCGY_-7" value="Xử lý thanh toán" style="rounded=0;whiteSpace=wrap;html=1;" vertex="1" parent="1">
          <mxGeometry x="580" y="780" width="200" height="60" as="geometry" />
        </mxCell>
        <mxCell id="KKSr8hagYEq-jAlGCGY_-8" value="Thanh toán thành công?" style="rhombus;whiteSpace=wrap;html=1;" vertex="1" parent="1">
          <mxGeometry x="580" y="880" width="180" height="80" as="geometry" />
        </mxCell>
        <mxCell id="KKSr8hagYEq-jAlGCGY_-9" value="Thông báo lỗi thanh toán" style="shape=parallelogram;whiteSpace=wrap;html=1;" vertex="1" parent="1">
          <mxGeometry x="320" y="880" width="200" height="60" as="geometry" />
        </mxCell>
        <mxCell id="KKSr8hagYEq-jAlGCGY_-10" value="Lưu thông tin đặt vé" style="rounded=0;whiteSpace=wrap;html=1;" vertex="1" parent="1">
          <mxGeometry x="580" y="1000" width="200" height="60" as="geometry" />
        </mxCell>
        <mxCell id="KKSr8hagYEq-jAlGCGY_-11" value="Xuất vé điện tử (email/màn hình)" style="shape=parallelogram;whiteSpace=wrap;html=1;" vertex="1" parent="1">
          <mxGeometry x="580" y="1100" width="240" height="60" as="geometry" />
        </mxCell>
        <mxCell id="KKSr8hagYEq-jAlGCGY_-12" value="Kết thúc" style="ellipse;whiteSpace=wrap;html=1;" vertex="1" parent="1">
          <mxGeometry x="580" y="1200" width="120" height="60" as="geometry" />
        </mxCell>
        <mxCell id="KKSr8hagYEq-jAlGCGY_-13" style="" edge="1" parent="1" source="KKSr8hagYEq-jAlGCGY_-1" target="KKSr8hagYEq-jAlGCGY_-2">
          <mxGeometry relative="1" as="geometry" />
        </mxCell>
        <mxCell id="KKSr8hagYEq-jAlGCGY_-14" style="" edge="1" parent="1" source="KKSr8hagYEq-jAlGCGY_-2" target="KKSr8hagYEq-jAlGCGY_-3" />
        <mxCell id="KKSr8hagYEq-jAlGCGY_-15" style="" edge="1" parent="1" source="KKSr8hagYEq-jAlGCGY_-3" target="KKSr8hagYEq-jAlGCGY_-4" />
        <mxCell id="KKSr8hagYEq-jAlGCGY_-16" style="" edge="1" parent="1" source="KKSr8hagYEq-jAlGCGY_-4" target="KKSr8hagYEq-jAlGCGY_-5">
          <mxGeometry relative="1" as="geometry">
            <mxPoint as="offset" />
          </mxGeometry>
        </mxCell>
        <mxCell id="KKSr8hagYEq-jAlGCGY_-17" style="" edge="1" parent="1" source="KKSr8hagYEq-jAlGCGY_-4" target="KKSr8hagYEq-jAlGCGY_-6" />
        <mxCell id="KKSr8hagYEq-jAlGCGY_-18" style="" edge="1" parent="1" source="KKSr8hagYEq-jAlGCGY_-6" target="KKSr8hagYEq-jAlGCGY_-7" />
        <mxCell id="KKSr8hagYEq-jAlGCGY_-19" style="" edge="1" parent="1" source="KKSr8hagYEq-jAlGCGY_-7" target="KKSr8hagYEq-jAlGCGY_-8" />
        <mxCell id="KKSr8hagYEq-jAlGCGY_-20" style="" edge="1" parent="1" source="KKSr8hagYEq-jAlGCGY_-8" target="KKSr8hagYEq-jAlGCGY_-9" />
        <mxCell id="KKSr8hagYEq-jAlGCGY_-21" style="" edge="1" parent="1" source="KKSr8hagYEq-jAlGCGY_-8" target="KKSr8hagYEq-jAlGCGY_-10" />
        <mxCell id="KKSr8hagYEq-jAlGCGY_-22" style="" edge="1" parent="1" source="KKSr8hagYEq-jAlGCGY_-10" target="KKSr8hagYEq-jAlGCGY_-11" />
        <mxCell id="KKSr8hagYEq-jAlGCGY_-23" style="" edge="1" parent="1" source="KKSr8hagYEq-jAlGCGY_-11" target="KKSr8hagYEq-jAlGCGY_-12" />
      </root>
    </mxGraphModel>
  </diagram>
</mxfile>
